<?xml version="1.0" standalone="no"?>
<!DOCTYPE svg PUBLIC "-//W3C//DTD SVG 20010904//EN"
 "http://www.w3.org/TR/2001/REC-SVG-20010904/DTD/svg10.dtd">
<svg version="1.0" xmlns="http://www.w3.org/2000/svg"
 width="700.000000pt" height="700.000000pt" viewBox="0 0 700.000000 700.000000"
 preserveAspectRatio="xMidYMid meet">
<metadata>
Created by potrace 1.14, written by Peter Selinger 2001-2017
</metadata>
<g transform="translate(0.000000,700.000000) scale(0.100000,-0.100000)"
fill="#000000" stroke="none">
<path d="M268 6983 c-39 -25 -51 -62 -44 -135 23 -217 115 -420 276 -609 58
-68 211 -194 289 -239 33 -19 61 -39 61 -45 0 -5 -10 -19 -23 -30 -70 -63
-191 -221 -261 -341 -66 -114 -188 -404 -170 -404 3 0 0 -8 -5 -18 -6 -11 -12
-30 -14 -43 -28 -150 -36 -202 -41 -246 -3 -28 -10 -63 -16 -77 -12 -34 -137
-489 -155 -566 -1 -8 -10 -42 -18 -75 -9 -33 -18 -71 -21 -85 -2 -14 -15 -74
-29 -135 -26 -114 -61 -302 -73 -390 -3 -27 -8 -59 -11 -70 -2 -11 -6 -67 -8
-125 -3 -89 -1 -108 13 -126 33 -40 60 -46 188 -46 l124 0 0 -125 c0 -172 9
-185 135 -212 101 -21 247 -43 298 -45 9 0 17 -5 18 -11 0 -5 2 -17 3 -25 2
-8 6 -42 10 -75 5 -48 31 -186 51 -275 11 -50 61 -209 91 -295 76 -213 268
-560 401 -724 197 -243 388 -423 618 -583 79 -55 269 -168 283 -168 4 0 17 -8
30 -18 l23 -18 -23 -1 c-42 -1 -223 -14 -248 -18 -14 -2 -61 -6 -105 -10 -139
-10 -307 -24 -370 -31 -62 -6 -145 -45 -186 -86 -49 -50 -73 -96 -112 -213
-50 -156 -51 -174 -6 -216 40 -37 86 -39 127 -4 23 19 39 50 63 123 40 122 65
168 99 182 29 12 88 19 105 13 6 -2 10 -54 9 -129 0 -96 4 -134 15 -158 33
-64 117 -72 165 -15 25 30 26 34 26 178 l0 148 57 2 c31 1 61 3 67 4 6 1 36
-71 66 -160 30 -88 63 -170 74 -182 38 -42 119 -36 151 12 28 43 25 68 -21
205 -24 74 -42 137 -39 140 7 8 19 9 138 17 56 4 110 9 120 11 17 3 135 12
240 19 21 1 68 -6 105 -17 37 -10 81 -21 97 -24 17 -3 49 -9 73 -15 24 -5 60
-11 80 -14 20 -3 48 -7 62 -10 102 -20 514 -28 655 -12 120 13 149 17 175 22
14 3 36 8 50 10 50 9 72 14 88 19 9 3 30 7 45 10 15 3 52 12 80 20 29 9 64 14
78 11 13 -2 67 -6 119 -10 52 -3 109 -8 125 -10 17 -3 73 -7 125 -11 84 -5
114 -8 143 -13 4 0 3 -9 -3 -19 -21 -38 -83 -237 -84 -273 -2 -98 131 -133
183 -48 11 17 41 98 67 180 26 81 50 146 54 144 3 -2 34 -5 68 -6 l62 -2 0
-137 c0 -75 5 -151 11 -167 23 -69 128 -81 173 -20 18 25 21 44 22 160 1 73 3
135 3 138 2 12 95 -2 123 -19 32 -19 45 -44 83 -162 40 -123 49 -137 95 -151
68 -21 130 21 132 88 1 34 -55 208 -87 273 -49 96 -150 164 -260 174 -53 5
-141 13 -230 22 -16 1 -70 5 -120 9 -49 3 -101 8 -115 10 -21 3 -159 14 -237
19 -25 2 -44 16 -22 16 21 0 247 133 350 205 420 296 761 722 953 1191 99 242
151 443 191 736 3 26 9 47 13 46 32 -8 352 46 392 67 41 21 50 55 50 189 l0
123 125 1 c191 2 212 22 200 189 -4 54 -8 104 -10 113 -1 8 -6 40 -10 70 -4
30 -9 64 -11 75 -3 11 -7 36 -10 55 -5 33 -9 59 -18 105 -3 11 -16 74 -31 140
-15 66 -29 131 -31 145 -8 38 -100 397 -124 480 -12 41 -23 82 -25 90 -2 8
-16 56 -30 105 -14 50 -32 135 -40 190 -39 277 -125 507 -272 731 -57 85 -160
213 -211 261 -13 12 -21 26 -18 31 3 5 33 26 68 47 35 21 65 41 68 45 3 3 15
13 27 21 12 8 51 41 88 73 138 123 265 315 324 491 33 99 58 247 48 285 -16
63 -89 95 -150 67 -106 -49 -256 -98 -342 -111 -22 -3 -62 -10 -90 -16 -66
-12 -164 -24 -290 -34 -38 -4 -95 -8 -125 -11 -30 -3 -95 -7 -145 -10 -49 -3
-112 -8 -140 -10 -27 -3 -86 -7 -130 -10 -150 -11 -284 -26 -425 -49 -74 -12
-76 -11 -159 22 -206 82 -537 173 -721 197 -14 2 -38 6 -55 9 -30 5 -64 9
-190 23 -143 15 -627 8 -731 -11 -10 -2 -46 -7 -79 -11 -32 -4 -68 -9 -80 -11
-11 -2 -45 -8 -75 -14 -83 -15 -89 -16 -180 -40 -47 -12 -95 -24 -108 -26 -36
-7 -281 -91 -360 -123 -39 -16 -72 -28 -74 -26 -2 1 -57 10 -123 20 -66 9
-131 18 -145 20 -23 3 -72 8 -220 20 -30 3 -89 7 -130 10 -274 18 -429 30
-510 40 -19 2 -60 7 -90 10 -58 6 -98 12 -140 20 -14 3 -34 7 -46 9 -104 20
-287 78 -352 112 -36 18 -71 17 -104 -3z"/>
</g>
</svg>
